<?xml version="1.0" encoding="UTF-8" standalone="no"?>
<svg
   width="11"
   height="7.005455"
   viewBox="0 0 11 7.005455"
   version="1.1"
   id="svg4"
   sodipodi:docname="remarkable-outdoor_activity-stadium•.svg"
   inkscape:version="1.2.2 (b0a8486541, 2022-12-01)"
   xmlns:inkscape="http://www.inkscape.org/namespaces/inkscape"
   xmlns:sodipodi="http://sodipodi.sourceforge.net/DTD/sodipodi-0.dtd"
   xmlns="http://www.w3.org/2000/svg"
   xmlns:svg="http://www.w3.org/2000/svg">
  <defs
     id="defs8" />
  <sodipodi:namedview
     id="namedview6"
     pagecolor="#ffffff"
     bordercolor="#cccccc"
     borderopacity="1"
     inkscape:showpageshadow="0"
     inkscape:pageopacity="1"
     inkscape:pagecheckerboard="0"
     inkscape:deskcolor="#d1d1d1"
     showgrid="false"
     inkscape:zoom="41.585033"
     inkscape:cx="1.1903321"
     inkscape:cy="2.5850647"
     inkscape:window-width="1882"
     inkscape:window-height="1061"
     inkscape:window-x="0"
     inkscape:window-y="0"
     inkscape:window-maximized="1"
     inkscape:current-layer="svg4" />
  <g
     id="g391"
     style="font-variation-settings:normal;vector-effect:none;fill:#4c4c4c;fill-opacity:1;stroke-width:1;stroke-linecap:butt;stroke-linejoin:miter;stroke-miterlimit:4;stroke-dasharray:none;stroke-dashoffset:0;stroke-opacity:1;-inkscape-stroke:none;stop-color:#000000"
     transform="matrix(0.35998553,0,0,0.35238708,1.1801736,-0.70477415)">
    <path
       d="M 7,5 3,7 V 3 Z M 18,3 V 7 L 22,5 Z M 11,2 V 6 L 15,4 Z M 5,10.04 C 6.38,10.53 8.77,11 12,11 15.23,11 17.62,10.53 19,10.04 19,9.86 16.22,9 12,9 7.78,9 5,9.86 5,10.04 Z M 15,17 H 9 v 4.88 C 4.94,21.49 2,20.34 2,19 V 10 C 2,8.34 6.48,7 12,7 c 5.52,0 10,1.34 10,3 v 9 c 0,1.34 -2.94,2.48 -7,2.87 z"
       id="path389"
       style="font-variation-settings:normal;vector-effect:none;fill:#4c4c4c;fill-opacity:1;stroke-width:1;stroke-linecap:butt;stroke-linejoin:miter;stroke-miterlimit:4;stroke-dasharray:none;stroke-dashoffset:0;stroke-opacity:1;-inkscape-stroke:none;stop-color:#000000;stop-opacity:1" />
  </g>
</svg>
